<svg width="100%" height="100%" viewBox="0 0 922 482" fill="none" xmlns="http://www.w3.org/2000/svg">
<mask id="mask0_332_7257" style="mask-type:alpha" maskUnits="userSpaceOnUse" x="0" y="0" width="922" height="482">
<rect width="922" height="482" fill="#D9D9D9"/>
</mask>
<g mask="url(#mask0_332_7257)">
<path d="M466.172 510.205L811.361 413.817" stroke="#FFC200" stroke-width="0.544942" stroke-miterlimit="10"/>
<path d="M466.17 510.205L219.404 445.297" stroke="#FFC200" stroke-width="0.544942" stroke-miterlimit="10"/>
<path d="M466.172 510.205L481.881 110.732" stroke="#FFC200" stroke-width="0.544942" stroke-miterlimit="10"/>
<path d="M466.172 510.205L631.634 185.895" stroke="#FFC200" stroke-width="0.544942" stroke-miterlimit="10"/>
<path d="M466.172 510.205L405.463 244.616" stroke="#FFC200" stroke-width="0.544942" stroke-miterlimit="10"/>
<path d="M466.17 510.205L338.371 159.593" stroke="#FFC200" stroke-width="0.544942" stroke-miterlimit="10"/>
<path d="M466.172 510.205L521.645 253.05" stroke="#FFC200" stroke-width="0.544942" stroke-miterlimit="10"/>
<path d="M466.17 510.205L67.5586 434.966" stroke="#FFC200" stroke-width="0.544942" stroke-miterlimit="10"/>
<path d="M466.171 510.205L274.074 439.589" stroke="#FFC200" stroke-width="0.544942" stroke-miterlimit="10"/>
<path d="M466.171 510.205L196.375 375.928" stroke="#FFC200" stroke-width="0.544942" stroke-miterlimit="10"/>
<path d="M466.172 510.205L77.375 274.148" stroke="#FFC200" stroke-width="0.544942" stroke-miterlimit="10"/>
<path d="M466.172 510.205L229.613 312.062" stroke="#FFC200" stroke-width="0.544942" stroke-miterlimit="10"/>
<path d="M466.172 510.205L305.314 215.965" stroke="#FFC200" stroke-width="0.544942" stroke-miterlimit="10"/>
<path d="M466.171 510.205L308.234 331.827" stroke="#FFC200" stroke-width="0.544942" stroke-miterlimit="10"/>
<path d="M466.172 510.206L206.951 160.362" stroke="#FFC200" stroke-width="0.544942" stroke-miterlimit="10"/>
<path d="M466.172 510.205L614.592 293.289" stroke="#FFC200" stroke-width="0.544942" stroke-miterlimit="10"/>
<path d="M466.172 510.205L734.242 399" stroke="#FFC200" stroke-width="0.544942" stroke-miterlimit="10"/>
<path d="M466.172 510.205L425.75 155.679" stroke="#FFC200" stroke-width="0.544942" stroke-miterlimit="10"/>
<path d="M466.172 510.205L493.601 307.32" stroke="#FFC200" stroke-width="0.544942" stroke-miterlimit="10"/>
<path d="M466.172 510.205L579.279 219.007" stroke="#FFC200" stroke-width="0.544942" stroke-miterlimit="10"/>
<path d="M466.172 510.206L670.911 481.921" stroke="#FFC200" stroke-width="0.544942" stroke-miterlimit="10"/>
<path d="M466.172 510.205L577.844 378.919" stroke="#FFC200" stroke-width="0.544942" stroke-miterlimit="10"/>
<path d="M466.172 510.205L763.73 254.067" stroke="#FFC200" stroke-width="0.544942" stroke-miterlimit="10"/>
<path d="M466.172 510.205L681.793 369.596" stroke="#FFC200" stroke-width="0.544942" stroke-miterlimit="10"/>
<path d="M466.172 510.205L840.413 306.953" stroke="#FFC200" stroke-width="0.544942" stroke-miterlimit="10"/>
<path d="M911.311 494.482C915.18 494.482 918.316 491.345 918.316 487.475C918.316 483.606 915.18 480.469 911.311 480.469C907.443 480.469 904.307 483.606 904.307 487.475C904.307 491.345 907.443 494.482 911.311 494.482Z" fill="#FFC200"/>
<path d="M670.62 486.399C673.2 486.399 675.292 484.306 675.292 481.724C675.292 479.143 673.2 477.05 670.62 477.05C668.039 477.05 665.947 479.143 665.947 481.724C665.947 484.306 668.039 486.399 670.62 486.399Z" fill="#FFC200"/>
<path d="M811.36 418.491C813.941 418.491 816.033 416.398 816.033 413.817C816.033 411.235 813.941 409.143 811.36 409.143C808.78 409.143 806.688 411.235 806.688 413.817C806.688 416.398 808.78 418.491 811.36 418.491Z" fill="#FFC200"/>
<path d="M734.677 405.989C738.545 405.989 741.681 402.852 741.681 398.983C741.681 395.113 738.545 391.976 734.677 391.976C730.808 391.976 727.672 395.113 727.672 398.983C727.672 402.852 730.808 405.989 734.677 405.989Z" fill="#FFC200"/>
<path d="M681.794 374.271C684.374 374.271 686.466 372.178 686.466 369.597C686.466 367.015 684.374 364.922 681.794 364.922C679.213 364.922 677.121 367.015 677.121 369.597C677.121 372.178 679.213 374.271 681.794 374.271Z" fill="#FFC200"/>
<path d="M578.151 383.61C580.732 383.61 582.824 381.517 582.824 378.936C582.824 376.354 580.732 374.262 578.151 374.262C575.571 374.262 573.479 376.354 573.479 378.936C573.479 381.517 575.571 383.61 578.151 383.61Z" fill="#FFC200"/>
<path d="M614.985 300.142C618.854 300.142 621.99 297.005 621.99 293.135C621.99 289.266 618.854 286.128 614.985 286.128C611.117 286.128 607.98 289.266 607.98 293.135C607.98 297.005 611.117 300.142 614.985 300.142Z" fill="#FFC200"/>
<path d="M632.137 190.142C634.718 190.142 636.81 188.049 636.81 185.468C636.81 182.886 634.718 180.793 632.137 180.793C629.557 180.793 627.465 182.886 627.465 185.468C627.465 188.049 629.557 190.142 632.137 190.142Z" fill="#FFC200"/>
<path d="M579.27 225.51C583.139 225.51 586.275 222.372 586.275 218.503C586.275 214.633 583.139 211.496 579.27 211.496C575.402 211.496 572.266 214.633 572.266 218.503C572.266 222.372 575.402 225.51 579.27 225.51Z" fill="#FFC200"/>
<path d="M521.618 259.416C525.486 259.416 528.622 256.279 528.622 252.409C528.622 248.539 525.486 245.402 521.618 245.402C517.749 245.402 514.613 248.539 514.613 252.409C514.613 256.279 517.749 259.416 521.618 259.416Z" fill="#FFC200"/>
<path d="M493.788 311.302C496.368 311.302 498.46 309.209 498.46 306.628C498.46 304.046 496.368 301.954 493.788 301.954C491.207 301.954 489.115 304.046 489.115 306.628C489.115 309.209 491.207 311.302 493.788 311.302Z" fill="#FFC200"/>
<path d="M482.3 116.808C486.168 116.808 489.304 113.671 489.304 109.801C489.304 105.931 486.168 102.794 482.3 102.794C478.431 102.794 475.295 105.931 475.295 109.801C475.295 113.671 478.431 116.808 482.3 116.808Z" fill="#FFC200"/>
<path d="M425.938 159.319C428.519 159.319 430.611 157.227 430.611 154.645C430.611 152.064 428.519 149.971 425.938 149.971C423.358 149.971 421.266 152.064 421.266 154.645C421.266 157.227 423.358 159.319 425.938 159.319Z" fill="#FFC200"/>
<path d="M405.864 250.478C409.732 250.478 412.868 247.341 412.868 243.471C412.868 239.601 409.732 236.464 405.864 236.464C401.995 236.464 398.859 239.601 398.859 243.471C398.859 247.341 401.995 250.478 405.864 250.478Z" fill="#FFC200"/>
<path d="M338.551 166.711C342.42 166.711 345.556 163.574 345.556 159.704C345.556 155.834 342.42 152.697 338.551 152.697C334.683 152.697 331.547 155.834 331.547 159.704C331.547 163.574 334.683 166.711 338.551 166.711Z" fill="#FFC200"/>
<path d="M305.313 220.639C307.894 220.639 309.986 218.546 309.986 215.965C309.986 213.383 307.894 211.291 305.313 211.291C302.733 211.291 300.641 213.383 300.641 215.965C300.641 218.546 302.733 220.639 305.313 220.639Z" fill="#FFC200"/>
<path d="M206.489 164.66C209.07 164.66 211.162 162.568 211.162 159.986C211.162 157.405 209.07 155.312 206.489 155.312C203.908 155.312 201.816 157.405 201.816 159.986C201.816 162.568 203.908 164.66 206.489 164.66Z" fill="#FFC200"/>
<path d="M228.29 317.25C230.87 317.25 232.962 315.157 232.962 312.576C232.962 309.994 230.87 307.901 228.29 307.901C225.709 307.901 223.617 309.994 223.617 312.576C223.617 315.157 225.709 317.25 228.29 317.25Z" fill="#FFC200"/>
<path d="M308.508 338.86C312.377 338.86 315.513 335.723 315.513 331.853C315.513 327.983 312.377 324.846 308.508 324.846C304.64 324.846 301.504 327.983 301.504 331.853C301.504 335.723 304.64 338.86 308.508 338.86Z" fill="#FFC200"/>
<path d="M77.6569 280.394C81.5255 280.394 84.6615 277.257 84.6615 273.387C84.6615 269.517 81.5255 266.38 77.6569 266.38C73.7884 266.38 70.6523 269.517 70.6523 273.387C70.6523 277.257 73.7884 280.394 77.6569 280.394Z" fill="#FFC200"/>
<path d="M195.411 380.175C197.991 380.175 200.083 378.082 200.083 375.501C200.083 372.919 197.991 370.827 195.411 370.827C192.83 370.827 190.738 372.919 190.738 375.501C190.738 378.082 192.83 380.175 195.411 380.175Z" fill="#FFC200"/>
<path d="M273.657 444.144C276.238 444.144 278.33 442.051 278.33 439.47C278.33 436.888 276.238 434.795 273.657 434.795C271.076 434.795 268.984 436.888 268.984 439.47C268.984 442.051 271.076 444.144 273.657 444.144Z" fill="#FFC200"/>
<path d="M219.2 452.253C223.068 452.253 226.204 449.116 226.204 445.246C226.204 441.376 223.068 438.239 219.2 438.239C215.331 438.239 212.195 441.376 212.195 445.246C212.195 449.116 215.331 452.253 219.2 452.253Z" fill="#FFC200"/>
<path d="M67.0378 441.597C70.9063 441.597 74.0424 438.46 74.0424 434.59C74.0424 430.72 70.9063 427.583 67.0378 427.583C63.1693 427.583 60.0332 430.72 60.0332 434.59C60.0332 438.46 63.1693 441.597 67.0378 441.597Z" fill="#FFC200"/>
<path d="M103.889 490.372C106.47 490.372 108.562 488.28 108.562 485.698C108.562 483.117 106.47 481.024 103.889 481.024C101.309 481.024 99.2168 483.117 99.2168 485.698C99.2168 488.28 101.309 490.372 103.889 490.372Z" fill="#FFC200"/>
<path d="M763.926 258.758C766.507 258.758 768.599 256.666 768.599 254.084C768.599 251.503 766.507 249.41 763.926 249.41C761.346 249.41 759.254 251.503 759.254 254.084C759.254 256.666 761.346 258.758 763.926 258.758Z" fill="#FFC200"/>
<path d="M839.719 311.798C842.3 311.798 844.392 309.705 844.392 307.123C844.392 304.542 842.3 302.449 839.719 302.449C837.139 302.449 835.047 304.542 835.047 307.123C835.047 309.705 837.139 311.798 839.719 311.798Z" fill="#FFC200"/>
<path d="M465.778 619.31C523.646 619.31 570.556 572.384 570.556 514.497C570.556 456.61 523.646 409.683 465.778 409.683C407.911 409.683 361 456.61 361 514.497C361 572.384 407.911 619.31 465.778 619.31Z" stroke="#FFC200" stroke-width="12.7546" stroke-miterlimit="10"/>
</g>
</svg>
